<?xml version="1.0" encoding="utf-8"?>
<svg xmlns="http://www.w3.org/2000/svg" viewBox="223.7177 184.0681 10.5185 11.6417" width="10.5185px" height="11.6417px" xmlns:bx="https://boxy-svg.com">
  <defs>
    <linearGradient gradientUnits="userSpaceOnUse" x1="6.35" y1="2.939" x2="6.35" y2="9.76" id="gradient-11">
      <stop offset="0" style="stop-color: rgb(100% 100% 100%)"/>
      <stop offset="1" style="stop-color: rgb(56.687% 56.687% 56.687%)"/>
    </linearGradient>
    <linearGradient gradientUnits="userSpaceOnUse" x1="19.672" y1="6.974" x2="19.672" y2="11.935" id="gradient-13" gradientTransform="matrix(0.88, 0, 0, 0.88, -10.906006, -1.242004)">
      <stop offset="0" style="stop-color: rgb(100% 100% 100%)"/>
      <stop offset="1" style="stop-color: rgb(56.687% 56.687% 56.687%)"/>
    </linearGradient>
    <linearGradient gradientUnits="userSpaceOnUse" x1="227.662" y1="188.434" x2="227.662" y2="192.799" id="gradient-12" gradientTransform="matrix(1, 0, 0, 1, -222.626999, -183.539001)">
      <stop offset="0" style="stop-color: rgb(83.922% 82.353% 82.353%)"/>
      <stop offset="1" style="stop-color: rgb(48.43% 47.018% 47.019%)"/>
    </linearGradient>
    <bx:export>
      <bx:file format="png" width="1100" height="1200" dpi="400" path="icon.png"/>
    </bx:export>
  </defs>
  <g transform="matrix(1, 0, 0, 1, 222.6269989013672, 183.53900146484375)">
    <path d="m6.35 0.52917-2.5208 4.3656 2.5208 1.4552 2.5203-1.4552 0.10955-3.0996c-1.1511-0.66459-2.3388-1.2661-2.6298-1.2661z" id="path6" style="fill: rgb(178, 148, 240);"/>
    <path d="m8.9798 1.7952-2.6298 4.5548 2.5203 1.4552 2.5208-4.3656c-0.14552-0.25205-1.2601-0.97975-2.4112-1.6443z" id="path8" style="fill: rgb(168, 133, 238);"/>
    <path d="m11.391 3.4396-5.041 2.9104 2.5203 1.4552 2.7389-1.4552c0-1.3292-0.07255-2.6584-0.21808-2.9104z" id="path10" style="fill: rgb(143, 97, 234);"/>
    <path d="m6.35 6.35v2.9104h5.041c0.14552-0.25205 0.21807-1.5812 0.21808-2.9104z" id="path12" style="fill: rgb(126, 85, 209);"/>
    <path d="m6.35 6.35v2.9104l2.6298 1.6443c1.1511-0.66459 2.2657-1.3923 2.4112-1.6443z" id="path14" style="fill: rgb(106, 65, 189);"/>
    <path d="m6.35 6.35-2.5208 1.4552 2.5208 4.3656c0.29104 0 1.4787-0.60148 2.6298-1.2661z" id="path16" style="fill: rgb(85, 44, 168);"/>
    <path d="m3.8292 4.8948-2.5203 4.3656c0.29104 0.5041 4.459 2.9104 5.041 2.9104v-5.8208z" id="path18" style="fill: rgb(53, 18, 130);"/>
    <path d="m1.309 3.4396c-0.29104 0.5041-0.29104 5.3167 0 5.8208l5.041-2.9104v-2.9104z" id="path20" style="fill: rgb(75, 34, 158);"/>
    <path d="m6.35 0.52917c-0.58208-2e-8 -4.75 2.4063-5.041 2.9104l5.041 2.9104z" id="path22" style="paint-order: fill; fill: rgb(204, 184, 245);"/>
    <g transform="matrix(0.88, 0, 0, 0.88, 0.763, 0.761993)" id="g28">
      <path transform="matrix(.96975 0 0 .96975 .1921 .1921)" d="m6.3498 2.9393c-0.34105 0-2.7827 1.4099-2.9532 1.7052l2.9532 5.1157 2.9538-5.1157c-0.17052-0.29535-2.6127-1.7052-2.9538-1.7052z" stroke-width=".26458" id="path26" style="fill: url(&quot;#gradient-11&quot;);"/>
    </g>
    <path d="M 3.83 4.895 L 6.351 9.26 C 6.642 9.26 8.726 8.057 8.871 7.805 C 9.017 7.553 9.017 5.147 8.871 4.895 L 6.351 6.35 L 3.83 4.895 Z" stroke-width=".26458" id="path30" style="fill: url(&quot;#gradient-13&quot;);"/>
    <path d="M 3.83 4.895 C 3.684 5.147 3.684 7.553 3.83 7.805 C 3.975 8.057 6.059 9.26 6.35 9.26 L 6.35 6.35 L 3.83 4.895 Z" stroke-width=".26458" id="path34" style="fill: url(&quot;#gradient-12&quot;);"/>
  </g>
</svg>